<svg width="29" height="29" viewBox="0 0 29 29" xmlns="http://www.w3.org/2000/svg">
<path d="M25.4376 11.5833C25.4376 11.3899 25.3608 11.2045 25.224 11.0677C25.0873 10.931 24.9018 10.8542 24.7084 10.8542C24.5151 10.8542 24.3296 10.931 24.1928 11.0677C24.0561 11.2045 23.9793 11.3899 23.9793 11.5833H25.4376ZM5.02094 11.5833C5.02094 11.3899 4.94412 11.2045 4.80737 11.0677C4.67063 10.931 4.48516 10.8542 4.29177 10.8542C4.09839 10.8542 3.91292 10.931 3.77618 11.0677C3.63943 11.2045 3.56261 11.3899 3.56261 11.5833H5.02094ZM27.1089 15.0163C27.2458 15.1532 27.4315 15.2301 27.6251 15.2301C27.8187 15.2301 28.0044 15.1532 28.1414 15.0163C28.2783 14.8793 28.3552 14.6936 28.3552 14.5C28.3552 14.3064 28.2783 14.1207 28.1414 13.9838L27.1089 15.0163ZM14.5001 1.375L15.0164 0.858751C14.9486 0.790847 14.8682 0.736972 14.7796 0.700212C14.691 0.663453 14.596 0.644531 14.5001 0.644531C14.4042 0.644531 14.3092 0.663453 14.2206 0.700212C14.1321 0.736972 14.0516 0.790847 13.9839 0.858751L14.5001 1.375ZM0.858857 13.9838C0.721939 14.1207 0.64502 14.3064 0.64502 14.5C0.64502 14.6936 0.721939 14.8793 0.858857 15.0163C0.995775 15.1532 1.18148 15.2301 1.37511 15.2301C1.56874 15.2301 1.75444 15.1532 1.89136 15.0163L0.858857 13.9838ZM7.20844 28.3542H21.7918V26.8958H7.20844V28.3542ZM25.4376 24.7083V11.5833H23.9793V24.7083H25.4376ZM5.02094 24.7083V11.5833H3.56261V24.7083H5.02094ZM28.1414 13.9838L15.0164 0.858751L13.9839 1.89125L27.1089 15.0163L28.1414 13.9838ZM13.9839 0.858751L0.858857 13.9838L1.89136 15.0163L15.0164 1.89125L13.9839 0.858751ZM21.7918 28.3542C22.7587 28.3542 23.686 27.9701 24.3698 27.2863C25.0535 26.6026 25.4376 25.6753 25.4376 24.7083H23.9793C23.9793 25.2885 23.7488 25.8449 23.3386 26.2551C22.9283 26.6654 22.3719 26.8958 21.7918 26.8958V28.3542ZM7.20844 26.8958C6.62828 26.8958 6.07188 26.6654 5.66164 26.2551C5.25141 25.8449 5.02094 25.2885 5.02094 24.7083H3.56261C3.56261 25.6753 3.94672 26.6026 4.63045 27.2863C5.31417 27.9701 6.24151 28.3542 7.20844 28.3542V26.8958Z" fill="black"/>
</svg>
