<svg width="31" height="29" viewBox="0 0 31 29" fill="none" xmlns="http://www.w3.org/2000/svg">
<path d="M11.8164 20.3333L25.2054 25.1225C25.4303 25.2033 25.6705 25.2329 25.9083 25.209C26.1461 25.1851 26.3756 25.1083 26.58 24.9843C26.7843 24.8603 26.9584 24.6922 27.0895 24.4923C27.2205 24.2924 27.3052 24.0658 27.3374 23.8289L30.0689 3.18185C30.2351 1.92476 28.9329 0.987056 27.7837 1.53393L1.82681 13.9239C0.543476 14.5364 0.639726 16.3885 1.98139 16.8654L5.53973 18.1312L7.47931 18.8123M16.9585 22.1708L14.0564 27.0212C13.1085 28.1996 11.1995 27.5331 11.1995 26.0252V22.1416C11.1996 21.4088 11.4755 20.7028 11.9724 20.1641L17.6176 14.0391" stroke="black" stroke-linecap="round" stroke-linejoin="round"/>
</svg>
